<mxfile host="app.diagrams.net" agent="Mozilla/5.0 (Windows NT 10.0; Win64; x64; rv:136.0) Gecko/20100101 Firefox/136.0" version="26.1.0">
  <diagram id="C5RBs43oDa-KdzZeNtuy" name="Page-1">
    <mxGraphModel dx="2342" dy="1442" grid="0" gridSize="10" guides="1" tooltips="1" connect="1" arrows="1" fold="1" page="1" pageScale="1" pageWidth="1169" pageHeight="827" background="#ffffff" math="0" shadow="1">
      <root>
        <mxCell id="WIyWlLk6GJQsqaUBKTNV-0" />
        <mxCell id="WIyWlLk6GJQsqaUBKTNV-1" parent="WIyWlLk6GJQsqaUBKTNV-0" />
        <mxCell id="2oxmY2nHAn2lu7Slcwum-0" value="&lt;div&gt;Gestor&lt;/div&gt;" style="shape=umlActor;verticalLabelPosition=bottom;verticalAlign=top;html=1;outlineConnect=0;sketch=1;hachureGap=4;jiggle=2;curveFitting=1;fontFamily=Architects Daughter;fontSource=https%3A%2F%2Ffonts.googleapis.com%2Fcss%3Ffamily%3DArchitects%2BDaughter;fillColor=#e1d5e7;strokeColor=#9673a6;" vertex="1" parent="WIyWlLk6GJQsqaUBKTNV-1">
          <mxGeometry x="-794" y="-374" width="50" height="90" as="geometry" />
        </mxCell>
        <mxCell id="2oxmY2nHAn2lu7Slcwum-40" value="" style="edgeStyle=orthogonalEdgeStyle;rounded=0;sketch=1;hachureGap=4;jiggle=2;curveFitting=1;orthogonalLoop=1;jettySize=auto;html=1;fontFamily=Architects Daughter;fontSource=https%3A%2F%2Ffonts.googleapis.com%2Fcss%3Ffamily%3DArchitects%2BDaughter;startArrow=classic;startFill=0;endArrow=none;fillColor=#e1d5e7;strokeColor=#9673a6;" edge="1" parent="WIyWlLk6GJQsqaUBKTNV-1" source="2oxmY2nHAn2lu7Slcwum-3" target="2oxmY2nHAn2lu7Slcwum-39">
          <mxGeometry relative="1" as="geometry">
            <Array as="points">
              <mxPoint x="-794" y="-519" />
              <mxPoint x="-764" y="-519" />
            </Array>
          </mxGeometry>
        </mxCell>
        <mxCell id="2oxmY2nHAn2lu7Slcwum-51" style="edgeStyle=orthogonalEdgeStyle;rounded=0;sketch=1;hachureGap=4;jiggle=2;curveFitting=1;orthogonalLoop=1;jettySize=auto;html=1;entryX=1;entryY=0.5;entryDx=0;entryDy=0;fontFamily=Architects Daughter;fontSource=https%3A%2F%2Ffonts.googleapis.com%2Fcss%3Ffamily%3DArchitects%2BDaughter;fillColor=#e1d5e7;strokeColor=#9673a6;" edge="1" parent="WIyWlLk6GJQsqaUBKTNV-1" source="2oxmY2nHAn2lu7Slcwum-3" target="2oxmY2nHAn2lu7Slcwum-49">
          <mxGeometry relative="1" as="geometry" />
        </mxCell>
        <mxCell id="2oxmY2nHAn2lu7Slcwum-3" value="Gerar Evento" style="ellipse;whiteSpace=wrap;html=1;sketch=1;hachureGap=4;jiggle=2;curveFitting=1;fontFamily=Architects Daughter;fontSource=https%3A%2F%2Ffonts.googleapis.com%2Fcss%3Ffamily%3DArchitects%2BDaughter;fillColor=#e1d5e7;strokeColor=#9673a6;" vertex="1" parent="WIyWlLk6GJQsqaUBKTNV-1">
          <mxGeometry x="-844" y="-484" width="150" height="80" as="geometry" />
        </mxCell>
        <mxCell id="2oxmY2nHAn2lu7Slcwum-24" value="" style="edgeStyle=orthogonalEdgeStyle;rounded=0;sketch=1;hachureGap=4;jiggle=2;curveFitting=1;orthogonalLoop=1;jettySize=auto;html=1;fontFamily=Architects Daughter;fontSource=https%3A%2F%2Ffonts.googleapis.com%2Fcss%3Ffamily%3DArchitects%2BDaughter;endArrow=none;startFill=0;fillColor=#e1d5e7;strokeColor=#9673a6;" edge="1" parent="WIyWlLk6GJQsqaUBKTNV-1" source="2oxmY2nHAn2lu7Slcwum-8" target="2oxmY2nHAn2lu7Slcwum-0">
          <mxGeometry relative="1" as="geometry" />
        </mxCell>
        <mxCell id="2oxmY2nHAn2lu7Slcwum-8" value="&lt;div&gt;Cadastrar Carro&lt;/div&gt;" style="ellipse;whiteSpace=wrap;html=1;sketch=1;hachureGap=4;jiggle=2;curveFitting=1;fontFamily=Architects Daughter;fontSource=https%3A%2F%2Ffonts.googleapis.com%2Fcss%3Ffamily%3DArchitects%2BDaughter;fillColor=#e1d5e7;strokeColor=#9673a6;" vertex="1" parent="WIyWlLk6GJQsqaUBKTNV-1">
          <mxGeometry x="-644" y="-444" width="150" height="80" as="geometry" />
        </mxCell>
        <mxCell id="2oxmY2nHAn2lu7Slcwum-18" value="" style="edgeStyle=orthogonalEdgeStyle;rounded=0;sketch=1;hachureGap=4;jiggle=2;curveFitting=1;orthogonalLoop=1;jettySize=auto;html=1;fontFamily=Architects Daughter;fontSource=https%3A%2F%2Ffonts.googleapis.com%2Fcss%3Ffamily%3DArchitects%2BDaughter;fillColor=#e1d5e7;strokeColor=#9673a6;" edge="1" parent="WIyWlLk6GJQsqaUBKTNV-1" source="2oxmY2nHAn2lu7Slcwum-9" target="2oxmY2nHAn2lu7Slcwum-8">
          <mxGeometry relative="1" as="geometry">
            <Array as="points">
              <mxPoint x="-544" y="-494" />
              <mxPoint x="-569" y="-494" />
            </Array>
          </mxGeometry>
        </mxCell>
        <mxCell id="2oxmY2nHAn2lu7Slcwum-9" value="&lt;div&gt;Editar Carro&lt;/div&gt;" style="ellipse;whiteSpace=wrap;html=1;sketch=1;hachureGap=4;jiggle=2;curveFitting=1;fontFamily=Architects Daughter;fontSource=https%3A%2F%2Ffonts.googleapis.com%2Fcss%3Ffamily%3DArchitects%2BDaughter;fillColor=#e1d5e7;strokeColor=#9673a6;" vertex="1" parent="WIyWlLk6GJQsqaUBKTNV-1">
          <mxGeometry x="-554" y="-604" width="150" height="80" as="geometry" />
        </mxCell>
        <mxCell id="2oxmY2nHAn2lu7Slcwum-19" value="" style="edgeStyle=orthogonalEdgeStyle;rounded=0;sketch=1;hachureGap=4;jiggle=2;curveFitting=1;orthogonalLoop=1;jettySize=auto;html=1;fontFamily=Architects Daughter;fontSource=https%3A%2F%2Ffonts.googleapis.com%2Fcss%3Ffamily%3DArchitects%2BDaughter;fillColor=#e1d5e7;strokeColor=#9673a6;" edge="1" parent="WIyWlLk6GJQsqaUBKTNV-1" source="2oxmY2nHAn2lu7Slcwum-10" target="2oxmY2nHAn2lu7Slcwum-8">
          <mxGeometry relative="1" as="geometry">
            <Array as="points">
              <mxPoint x="-484" y="-494" />
              <mxPoint x="-484" y="-434" />
              <mxPoint x="-474" y="-434" />
              <mxPoint x="-474" y="-424" />
            </Array>
          </mxGeometry>
        </mxCell>
        <mxCell id="2oxmY2nHAn2lu7Slcwum-10" value="&lt;div&gt;Deletar Carro&lt;/div&gt;" style="ellipse;whiteSpace=wrap;html=1;sketch=1;hachureGap=4;jiggle=2;curveFitting=1;fontFamily=Architects Daughter;fontSource=https%3A%2F%2Ffonts.googleapis.com%2Fcss%3Ffamily%3DArchitects%2BDaughter;fillColor=#e1d5e7;strokeColor=#9673a6;" vertex="1" parent="WIyWlLk6GJQsqaUBKTNV-1">
          <mxGeometry x="-464" y="-534" width="150" height="80" as="geometry" />
        </mxCell>
        <mxCell id="2oxmY2nHAn2lu7Slcwum-21" value="" style="edgeStyle=orthogonalEdgeStyle;rounded=0;sketch=1;hachureGap=4;jiggle=2;curveFitting=1;orthogonalLoop=1;jettySize=auto;html=1;fontFamily=Architects Daughter;fontSource=https%3A%2F%2Ffonts.googleapis.com%2Fcss%3Ffamily%3DArchitects%2BDaughter;fillColor=#e1d5e7;strokeColor=#9673a6;" edge="1" parent="WIyWlLk6GJQsqaUBKTNV-1" source="2oxmY2nHAn2lu7Slcwum-11" target="2oxmY2nHAn2lu7Slcwum-8">
          <mxGeometry relative="1" as="geometry">
            <Array as="points">
              <mxPoint x="-464" y="-404" />
              <mxPoint x="-464" y="-404" />
            </Array>
          </mxGeometry>
        </mxCell>
        <mxCell id="2oxmY2nHAn2lu7Slcwum-11" value="&lt;div&gt;visualizar lista de Carro&lt;/div&gt;" style="ellipse;whiteSpace=wrap;html=1;sketch=1;hachureGap=4;jiggle=2;curveFitting=1;fontFamily=Architects Daughter;fontSource=https%3A%2F%2Ffonts.googleapis.com%2Fcss%3Ffamily%3DArchitects%2BDaughter;fillColor=#e1d5e7;strokeColor=#9673a6;" vertex="1" parent="WIyWlLk6GJQsqaUBKTNV-1">
          <mxGeometry x="-424" y="-444" width="150" height="80" as="geometry" />
        </mxCell>
        <mxCell id="2oxmY2nHAn2lu7Slcwum-22" value="" style="edgeStyle=orthogonalEdgeStyle;rounded=0;sketch=1;hachureGap=4;jiggle=2;curveFitting=1;orthogonalLoop=1;jettySize=auto;html=1;fontFamily=Architects Daughter;fontSource=https%3A%2F%2Ffonts.googleapis.com%2Fcss%3Ffamily%3DArchitects%2BDaughter;fillColor=#e1d5e7;strokeColor=#9673a6;" edge="1" parent="WIyWlLk6GJQsqaUBKTNV-1" source="2oxmY2nHAn2lu7Slcwum-12" target="2oxmY2nHAn2lu7Slcwum-11">
          <mxGeometry relative="1" as="geometry" />
        </mxCell>
        <mxCell id="2oxmY2nHAn2lu7Slcwum-12" value="&lt;div&gt;visualizar Carro&lt;/div&gt;" style="ellipse;whiteSpace=wrap;html=1;sketch=1;hachureGap=4;jiggle=2;curveFitting=1;fontFamily=Architects Daughter;fontSource=https%3A%2F%2Ffonts.googleapis.com%2Fcss%3Ffamily%3DArchitects%2BDaughter;fillColor=#e1d5e7;strokeColor=#9673a6;" vertex="1" parent="WIyWlLk6GJQsqaUBKTNV-1">
          <mxGeometry x="-234" y="-464" width="150" height="80" as="geometry" />
        </mxCell>
        <mxCell id="2oxmY2nHAn2lu7Slcwum-14" style="edgeStyle=orthogonalEdgeStyle;rounded=0;sketch=1;hachureGap=4;jiggle=2;curveFitting=1;orthogonalLoop=1;jettySize=auto;html=1;entryX=0.5;entryY=0;entryDx=0;entryDy=0;entryPerimeter=0;fontFamily=Architects Daughter;fontSource=https%3A%2F%2Ffonts.googleapis.com%2Fcss%3Ffamily%3DArchitects%2BDaughter;endArrow=none;startFill=0;fillColor=#e1d5e7;strokeColor=#9673a6;" edge="1" parent="WIyWlLk6GJQsqaUBKTNV-1" source="2oxmY2nHAn2lu7Slcwum-3" target="2oxmY2nHAn2lu7Slcwum-0">
          <mxGeometry relative="1" as="geometry" />
        </mxCell>
        <mxCell id="2oxmY2nHAn2lu7Slcwum-25" value="&lt;div&gt;Cadastrar Motorista&lt;/div&gt;" style="ellipse;whiteSpace=wrap;html=1;sketch=1;hachureGap=4;jiggle=2;curveFitting=1;fontFamily=Architects Daughter;fontSource=https%3A%2F%2Ffonts.googleapis.com%2Fcss%3Ffamily%3DArchitects%2BDaughter;fillColor=#e1d5e7;strokeColor=#9673a6;" vertex="1" parent="WIyWlLk6GJQsqaUBKTNV-1">
          <mxGeometry x="-684" y="-324" width="150" height="80" as="geometry" />
        </mxCell>
        <mxCell id="2oxmY2nHAn2lu7Slcwum-26" value="" style="edgeStyle=orthogonalEdgeStyle;rounded=0;sketch=1;hachureGap=4;jiggle=2;curveFitting=1;orthogonalLoop=1;jettySize=auto;html=1;fontFamily=Architects Daughter;fontSource=https%3A%2F%2Ffonts.googleapis.com%2Fcss%3Ffamily%3DArchitects%2BDaughter;fillColor=#e1d5e7;strokeColor=#9673a6;" edge="1" parent="WIyWlLk6GJQsqaUBKTNV-1" source="2oxmY2nHAn2lu7Slcwum-27" target="2oxmY2nHAn2lu7Slcwum-25">
          <mxGeometry relative="1" as="geometry">
            <Array as="points">
              <mxPoint x="-514" y="-294" />
              <mxPoint x="-514" y="-294" />
            </Array>
          </mxGeometry>
        </mxCell>
        <mxCell id="2oxmY2nHAn2lu7Slcwum-27" value="&lt;div&gt;Editar Motorista&lt;/div&gt;" style="ellipse;whiteSpace=wrap;html=1;sketch=1;hachureGap=4;jiggle=2;curveFitting=1;fontFamily=Architects Daughter;fontSource=https%3A%2F%2Ffonts.googleapis.com%2Fcss%3Ffamily%3DArchitects%2BDaughter;fillColor=#e1d5e7;strokeColor=#9673a6;" vertex="1" parent="WIyWlLk6GJQsqaUBKTNV-1">
          <mxGeometry x="-504" y="-344" width="150" height="80" as="geometry" />
        </mxCell>
        <mxCell id="2oxmY2nHAn2lu7Slcwum-28" value="" style="edgeStyle=orthogonalEdgeStyle;rounded=0;sketch=1;hachureGap=4;jiggle=2;curveFitting=1;orthogonalLoop=1;jettySize=auto;html=1;fontFamily=Architects Daughter;fontSource=https%3A%2F%2Ffonts.googleapis.com%2Fcss%3Ffamily%3DArchitects%2BDaughter;fillColor=#e1d5e7;strokeColor=#9673a6;" edge="1" parent="WIyWlLk6GJQsqaUBKTNV-1" source="2oxmY2nHAn2lu7Slcwum-29" target="2oxmY2nHAn2lu7Slcwum-25">
          <mxGeometry relative="1" as="geometry">
            <Array as="points">
              <mxPoint x="-609" y="-206" />
            </Array>
          </mxGeometry>
        </mxCell>
        <mxCell id="2oxmY2nHAn2lu7Slcwum-29" value="&lt;div&gt;Deletar Motorista&lt;/div&gt;" style="ellipse;whiteSpace=wrap;html=1;sketch=1;hachureGap=4;jiggle=2;curveFitting=1;fontFamily=Architects Daughter;fontSource=https%3A%2F%2Ffonts.googleapis.com%2Fcss%3Ffamily%3DArchitects%2BDaughter;fillColor=#e1d5e7;strokeColor=#9673a6;" vertex="1" parent="WIyWlLk6GJQsqaUBKTNV-1">
          <mxGeometry x="-442" y="-249" width="150" height="80" as="geometry" />
        </mxCell>
        <mxCell id="2oxmY2nHAn2lu7Slcwum-30" value="" style="edgeStyle=orthogonalEdgeStyle;rounded=0;sketch=1;hachureGap=4;jiggle=2;curveFitting=1;orthogonalLoop=1;jettySize=auto;html=1;fontFamily=Architects Daughter;fontSource=https%3A%2F%2Ffonts.googleapis.com%2Fcss%3Ffamily%3DArchitects%2BDaughter;fillColor=#e1d5e7;strokeColor=#9673a6;" edge="1" parent="WIyWlLk6GJQsqaUBKTNV-1" source="2oxmY2nHAn2lu7Slcwum-31" target="2oxmY2nHAn2lu7Slcwum-25">
          <mxGeometry relative="1" as="geometry">
            <Array as="points">
              <mxPoint x="-634" y="-114" />
            </Array>
          </mxGeometry>
        </mxCell>
        <mxCell id="2oxmY2nHAn2lu7Slcwum-31" value="&lt;div&gt;visualizar lista de Motorista&lt;/div&gt;" style="ellipse;whiteSpace=wrap;html=1;sketch=1;hachureGap=4;jiggle=2;curveFitting=1;fontFamily=Architects Daughter;fontSource=https%3A%2F%2Ffonts.googleapis.com%2Fcss%3Ffamily%3DArchitects%2BDaughter;fillColor=#e1d5e7;strokeColor=#9673a6;" vertex="1" parent="WIyWlLk6GJQsqaUBKTNV-1">
          <mxGeometry x="-514" y="-144" width="150" height="80" as="geometry" />
        </mxCell>
        <mxCell id="2oxmY2nHAn2lu7Slcwum-32" value="" style="edgeStyle=orthogonalEdgeStyle;rounded=0;sketch=1;hachureGap=4;jiggle=2;curveFitting=1;orthogonalLoop=1;jettySize=auto;html=1;fontFamily=Architects Daughter;fontSource=https%3A%2F%2Ffonts.googleapis.com%2Fcss%3Ffamily%3DArchitects%2BDaughter;fillColor=#e1d5e7;strokeColor=#9673a6;" edge="1" parent="WIyWlLk6GJQsqaUBKTNV-1" source="2oxmY2nHAn2lu7Slcwum-33" target="2oxmY2nHAn2lu7Slcwum-31">
          <mxGeometry relative="1" as="geometry" />
        </mxCell>
        <mxCell id="2oxmY2nHAn2lu7Slcwum-33" value="&lt;div&gt;visualizar Motorista&lt;/div&gt;" style="ellipse;whiteSpace=wrap;html=1;sketch=1;hachureGap=4;jiggle=2;curveFitting=1;fontFamily=Architects Daughter;fontSource=https%3A%2F%2Ffonts.googleapis.com%2Fcss%3Ffamily%3DArchitects%2BDaughter;fillColor=#e1d5e7;strokeColor=#9673a6;" vertex="1" parent="WIyWlLk6GJQsqaUBKTNV-1">
          <mxGeometry x="-294" y="-144" width="150" height="80" as="geometry" />
        </mxCell>
        <mxCell id="2oxmY2nHAn2lu7Slcwum-34" style="edgeStyle=orthogonalEdgeStyle;rounded=0;sketch=1;hachureGap=4;jiggle=2;curveFitting=1;orthogonalLoop=1;jettySize=auto;html=1;entryX=1;entryY=1;entryDx=0;entryDy=0;entryPerimeter=0;fontFamily=Architects Daughter;fontSource=https%3A%2F%2Ffonts.googleapis.com%2Fcss%3Ffamily%3DArchitects%2BDaughter;endArrow=none;startFill=0;fillColor=#e1d5e7;strokeColor=#9673a6;" edge="1" parent="WIyWlLk6GJQsqaUBKTNV-1" source="2oxmY2nHAn2lu7Slcwum-25" target="2oxmY2nHAn2lu7Slcwum-0">
          <mxGeometry relative="1" as="geometry">
            <Array as="points">
              <mxPoint x="-724" y="-284" />
              <mxPoint x="-724" y="-284" />
            </Array>
          </mxGeometry>
        </mxCell>
        <mxCell id="2oxmY2nHAn2lu7Slcwum-39" value="&lt;div&gt;Editar Evento&lt;/div&gt;" style="ellipse;whiteSpace=wrap;html=1;sketch=1;hachureGap=4;jiggle=2;curveFitting=1;fontFamily=Architects Daughter;fontSource=https%3A%2F%2Ffonts.googleapis.com%2Fcss%3Ffamily%3DArchitects%2BDaughter;fillColor=#e1d5e7;strokeColor=#9673a6;" vertex="1" parent="WIyWlLk6GJQsqaUBKTNV-1">
          <mxGeometry x="-864" y="-634" width="150" height="80" as="geometry" />
        </mxCell>
        <mxCell id="2oxmY2nHAn2lu7Slcwum-42" value="" style="edgeStyle=orthogonalEdgeStyle;rounded=0;sketch=1;hachureGap=4;jiggle=2;curveFitting=1;orthogonalLoop=1;jettySize=auto;html=1;fontFamily=Architects Daughter;fontSource=https%3A%2F%2Ffonts.googleapis.com%2Fcss%3Ffamily%3DArchitects%2BDaughter;fillColor=#e1d5e7;strokeColor=#9673a6;" edge="1" parent="WIyWlLk6GJQsqaUBKTNV-1" source="2oxmY2nHAn2lu7Slcwum-41" target="2oxmY2nHAn2lu7Slcwum-3">
          <mxGeometry relative="1" as="geometry">
            <Array as="points">
              <mxPoint x="-614" y="-514" />
              <mxPoint x="-744" y="-514" />
            </Array>
          </mxGeometry>
        </mxCell>
        <mxCell id="2oxmY2nHAn2lu7Slcwum-41" value="&lt;div&gt;Deletar Evento&lt;/div&gt;" style="ellipse;whiteSpace=wrap;html=1;sketch=1;hachureGap=4;jiggle=2;curveFitting=1;fontFamily=Architects Daughter;fontSource=https%3A%2F%2Ffonts.googleapis.com%2Fcss%3Ffamily%3DArchitects%2BDaughter;fillColor=#e1d5e7;strokeColor=#9673a6;" vertex="1" parent="WIyWlLk6GJQsqaUBKTNV-1">
          <mxGeometry x="-704" y="-634" width="150" height="80" as="geometry" />
        </mxCell>
        <mxCell id="2oxmY2nHAn2lu7Slcwum-43" value="&lt;div&gt;visualizar lista de Evento&lt;/div&gt;" style="ellipse;whiteSpace=wrap;html=1;sketch=1;hachureGap=4;jiggle=2;curveFitting=1;fontFamily=Architects Daughter;fontSource=https%3A%2F%2Ffonts.googleapis.com%2Fcss%3Ffamily%3DArchitects%2BDaughter;fillColor=#e1d5e7;strokeColor=#9673a6;" vertex="1" parent="WIyWlLk6GJQsqaUBKTNV-1">
          <mxGeometry x="-984" y="-704" width="150" height="80" as="geometry" />
        </mxCell>
        <mxCell id="2oxmY2nHAn2lu7Slcwum-47" style="edgeStyle=orthogonalEdgeStyle;rounded=0;sketch=1;hachureGap=4;jiggle=2;curveFitting=1;orthogonalLoop=1;jettySize=auto;html=1;fontFamily=Architects Daughter;fontSource=https%3A%2F%2Ffonts.googleapis.com%2Fcss%3Ffamily%3DArchitects%2BDaughter;fillColor=#e1d5e7;strokeColor=#9673a6;" edge="1" parent="WIyWlLk6GJQsqaUBKTNV-1" source="2oxmY2nHAn2lu7Slcwum-44" target="2oxmY2nHAn2lu7Slcwum-43">
          <mxGeometry relative="1" as="geometry" />
        </mxCell>
        <mxCell id="2oxmY2nHAn2lu7Slcwum-44" value="&lt;div&gt;visualizar Evento&lt;/div&gt;" style="ellipse;whiteSpace=wrap;html=1;sketch=1;hachureGap=4;jiggle=2;curveFitting=1;fontFamily=Architects Daughter;fontSource=https%3A%2F%2Ffonts.googleapis.com%2Fcss%3Ffamily%3DArchitects%2BDaughter;fillColor=#e1d5e7;strokeColor=#9673a6;" vertex="1" parent="WIyWlLk6GJQsqaUBKTNV-1">
          <mxGeometry x="-804" y="-754" width="150" height="80" as="geometry" />
        </mxCell>
        <mxCell id="2oxmY2nHAn2lu7Slcwum-45" style="edgeStyle=orthogonalEdgeStyle;rounded=0;sketch=1;hachureGap=4;jiggle=2;curveFitting=1;orthogonalLoop=1;jettySize=auto;html=1;entryX=0.078;entryY=0.239;entryDx=0;entryDy=0;entryPerimeter=0;fontFamily=Architects Daughter;fontSource=https%3A%2F%2Ffonts.googleapis.com%2Fcss%3Ffamily%3DArchitects%2BDaughter;fillColor=#e1d5e7;strokeColor=#9673a6;" edge="1" parent="WIyWlLk6GJQsqaUBKTNV-1" source="2oxmY2nHAn2lu7Slcwum-43" target="2oxmY2nHAn2lu7Slcwum-3">
          <mxGeometry relative="1" as="geometry" />
        </mxCell>
        <mxCell id="2oxmY2nHAn2lu7Slcwum-50" value="" style="edgeStyle=orthogonalEdgeStyle;rounded=0;sketch=1;hachureGap=4;jiggle=2;curveFitting=1;orthogonalLoop=1;jettySize=auto;html=1;fontFamily=Architects Daughter;fontSource=https%3A%2F%2Ffonts.googleapis.com%2Fcss%3Ffamily%3DArchitects%2BDaughter;endArrow=none;startFill=0;fillColor=#fff2cc;strokeColor=#d6b656;" edge="1" parent="WIyWlLk6GJQsqaUBKTNV-1" source="2oxmY2nHAn2lu7Slcwum-48" target="2oxmY2nHAn2lu7Slcwum-49">
          <mxGeometry relative="1" as="geometry" />
        </mxCell>
        <mxCell id="2oxmY2nHAn2lu7Slcwum-48" value="Motrista" style="shape=umlActor;verticalLabelPosition=bottom;verticalAlign=top;html=1;outlineConnect=0;sketch=1;hachureGap=4;jiggle=2;curveFitting=1;fontFamily=Architects Daughter;fontSource=https%3A%2F%2Ffonts.googleapis.com%2Fcss%3Ffamily%3DArchitects%2BDaughter;fillColor=#fff2cc;strokeColor=#d6b656;" vertex="1" parent="WIyWlLk6GJQsqaUBKTNV-1">
          <mxGeometry x="-1034" y="-374" width="20" height="80" as="geometry" />
        </mxCell>
        <mxCell id="2oxmY2nHAn2lu7Slcwum-49" value="Solicitar Evento" style="ellipse;whiteSpace=wrap;html=1;sketch=1;hachureGap=4;jiggle=2;curveFitting=1;fontFamily=Architects Daughter;fontSource=https%3A%2F%2Ffonts.googleapis.com%2Fcss%3Ffamily%3DArchitects%2BDaughter;fillColor=#fff2cc;strokeColor=#d6b656;" vertex="1" parent="WIyWlLk6GJQsqaUBKTNV-1">
          <mxGeometry x="-1084" y="-524" width="120" height="80" as="geometry" />
        </mxCell>
      </root>
    </mxGraphModel>
  </diagram>
</mxfile>
